<svg xmlns="http://www.w3.org/2000/svg" xmlns:xlink="http://www.w3.org/1999/xlink" width="32.206" height="32.212" viewBox="0 0 32.206 32.212"><defs><style>.a{fill:#168dcb;}.b{clip-path:url(#a);}.c{clip-path:url(#b);}.d{clip-path:url(#c);}.e{clip-path:url(#e);}</style><clipPath id="a"><path class="a" d="M71.141-10.53a11.77,11.77,0,0,0-.749-3.908,7.86,7.86,0,0,0-1.863-2.857,7.927,7.927,0,0,0-2.851-1.856,11.8,11.8,0,0,0-3.908-.749c-1.724-.082-2.272-.1-6.645-.1s-4.921.019-6.639.094a11.773,11.773,0,0,0-3.908.749,7.859,7.859,0,0,0-2.857,1.863,7.931,7.931,0,0,0-1.856,2.851,11.8,11.8,0,0,0-.749,3.908c-.082,1.724-.1,2.272-.1,6.645s.019,4.921.094,6.639a11.769,11.769,0,0,0,.749,3.908,7.943,7.943,0,0,0,1.862,2.857,7.928,7.928,0,0,0,2.851,1.856,11.8,11.8,0,0,0,3.908.749c1.718.076,2.265.094,6.639.094s4.921-.019,6.639-.094a11.767,11.767,0,0,0,3.908-.749A8.239,8.239,0,0,0,70.38,6.656a11.81,11.81,0,0,0,.749-3.908c.075-1.718.094-2.265.094-6.639S71.216-8.812,71.141-10.53ZM68.24,2.622a8.829,8.829,0,0,1-.554,2.989,5.343,5.343,0,0,1-3.058,3.058,8.86,8.86,0,0,1-2.989.554c-1.7.076-2.209.094-6.506.094s-4.814-.019-6.507-.094a8.825,8.825,0,0,1-2.989-.554,4.957,4.957,0,0,1-1.85-1.2,5.008,5.008,0,0,1-1.2-1.85,8.862,8.862,0,0,1-.554-2.989c-.076-1.7-.094-2.209-.094-6.507s.019-4.814.094-6.506a8.824,8.824,0,0,1,.554-2.989,4.9,4.9,0,0,1,1.208-1.85,5,5,0,0,1,1.85-1.2,8.866,8.866,0,0,1,2.989-.554c1.7-.075,2.209-.094,6.506-.094s4.814.019,6.507.094a8.829,8.829,0,0,1,2.989.554,4.953,4.953,0,0,1,1.85,1.2,5.007,5.007,0,0,1,1.2,1.85,8.865,8.865,0,0,1,.554,2.989c.075,1.7.094,2.209.094,6.506S68.316.923,68.24,2.622Z" transform="translate(-39.017 20)"/></clipPath><clipPath id="b"><path class="a" d="M-1207,2088.544H1155.675V-3152H-1207Z" transform="translate(1207 3152)"/></clipPath><clipPath id="c"><path class="a" d="M52.067-15.225A8.277,8.277,0,0,0,43.792-6.95a8.277,8.277,0,0,0,8.275,8.275A8.277,8.277,0,0,0,60.342-6.95,8.277,8.277,0,0,0,52.067-15.225Zm0,13.642A5.368,5.368,0,0,1,46.7-6.95a5.368,5.368,0,0,1,5.368-5.368A5.368,5.368,0,0,1,57.434-6.95a5.368,5.368,0,0,1-5.368,5.368Z" transform="translate(-43.792 15.225)"/></clipPath><clipPath id="e"><path class="a" d="M56.764-14.67a1.932,1.932,0,0,1-1.932,1.932A1.932,1.932,0,0,1,52.9-14.67,1.932,1.932,0,0,1,54.832-16.6a1.932,1.932,0,0,1,1.932,1.932Z" transform="translate(-52.901 16.602)"/></clipPath></defs><g transform="translate(-1605.694 -1005)"><g class="b" transform="translate(1605.694 1005)"><g class="c" transform="translate(-2044.398 -5138.818)"><path class="a" d="M38.017-21H73.5V14.493H38.017Z" transform="translate(2004.74 5158.177)"/></g></g><g class="d" transform="translate(1613.529 1012.834)"><g class="c" transform="translate(-2052.233 -5146.652)"><path class="a" d="M42.792-16.225H62.623V3.606H42.792Z" transform="translate(2007.8 5161.236)"/></g></g><g class="e" transform="translate(1628.474 1010.575)"><g class="c" transform="translate(-2067.177 -5144.393)"><path class="a" d="M51.9-17.6h7.145v7.145H51.9Z" transform="translate(2013.636 5160.354)"/></g></g></g></svg>