<svg xmlns="http://www.w3.org/2000/svg" xmlns:xlink="http://www.w3.org/1999/xlink" width="32.815" height="32.815" viewBox="0 0 32.815 32.815"><defs><style>.a{fill:#168dcb;}.b{clip-path:url(#a);}.c{clip-path:url(#b);}</style><clipPath id="a"><path class="a" d="M10.255,7.111H5.769V-7.374h4.486Zm.448-19.1a2.628,2.628,0,0,0-2.626-2.628,2.627,2.627,0,0,0-2.629,2.628A2.627,2.627,0,0,0,8.077-9.361,2.628,2.628,0,0,0,10.7-11.989ZM27.047-.858c0-3.888-.821-6.772-5.364-6.772A4.656,4.656,0,0,0,17.437-5.4h0v-1.97H13.075V7.111h4.358V-.081c0-1.883.479-3.708,2.814-3.708,2.3,0,2.377,2.154,2.377,3.828V7.111h4.422Zm5.768,9.828V-16.154A3.85,3.85,0,0,0,28.969-20H3.845A3.85,3.85,0,0,0,0-16.154V8.969a3.85,3.85,0,0,0,3.845,3.845H28.969A3.85,3.85,0,0,0,32.815,8.969ZM28.969-17.436a1.283,1.283,0,0,1,1.282,1.282V8.969a1.283,1.283,0,0,1-1.282,1.282H3.845A1.283,1.283,0,0,1,2.564,8.969V-16.154a1.283,1.283,0,0,1,1.282-1.282Z" transform="translate(0 20)"/></clipPath><clipPath id="b"><path class="a" d="M-1207,2088.544H1155.675V-3152H-1207Z" transform="translate(1207 3152)"/></clipPath></defs><g transform="translate(-1541.677 -1005)"><g class="b" transform="translate(1541.677 1005)"><g class="c" transform="translate(-1980.381 -5138.818)"><path class="a" d="M-1-21H35.1V15.1H-1Z" transform="translate(1979.74 5158.177)"/></g></g></g></svg>