<svg xmlns="http://www.w3.org/2000/svg" xmlns:xlink="http://www.w3.org/1999/xlink" width="170.313" height="170.31" viewBox="0 0 170.313 170.31"><defs><style>.a{fill:url(#a);}.b{fill:url(#b);}</style><linearGradient id="a" x1="0.5" y1="1" x2="0.5" gradientUnits="objectBoundingBox"><stop offset="0" stop-color="#1aa0e6"/><stop offset="1" stop-color="#148ece"/></linearGradient><linearGradient id="b" x1="0.5" y1="1" x2="0.5" gradientUnits="objectBoundingBox"><stop offset="0" stop-color="#5dc7ff"/><stop offset="1" stop-color="#fff1ff"/></linearGradient></defs><g transform="translate(0 -0.006)"><g transform="translate(70.519 0.006)"><path class="a" d="M310.293,81.335l-8.282-8.382A44.954,44.954,0,0,0,266.884.006H256.9a44.864,44.864,0,0,0-9.979,88.614l14.969-13.771,14.969,14.969H306.8a4.977,4.977,0,0,0,4.591-3.094,4.733,4.733,0,0,0-1.1-5.389Z" transform="translate(-211.999 -0.006)"/></g><g transform="translate(0 24.954)"><path class="b" d="M54.885,130.556H44.906A44.91,44.91,0,0,0,9.823,203.5l-8.361,8.352a4.989,4.989,0,0,0,3.528,8.517h49.9a44.906,44.906,0,0,0,0-89.812Zm80.5-40.582a14.969,14.969,0,1,0-14.969,14.969A14.985,14.985,0,0,0,135.383,89.975Zm-14.969,14.969a14.948,14.948,0,0,0-14.969,14.969v18.761a41.425,41.425,0,0,0,9.979,1.2h19.958V119.912a14.948,14.948,0,0,0-14.969-14.969Z" transform="translate(0 -75.006)"/></g></g></svg>